# Blender 4.4.1
# www.blender.org
mtllib Femur_0.mtl
o Femur_Nakashima_0.001
v -0.018107 0.011870 -0.017500
v -0.017133 0.013237 -0.017500
v -0.016056 0.014524 -0.017500
v -0.014883 0.015724 -0.017500
v -0.013620 0.016830 -0.017500
v -0.012276 0.017834 -0.017500
v -0.011640 0.018298 -0.017500
v -0.011031 0.018798 -0.017500
v -0.010452 0.019331 -0.017500
v -0.018972 0.010432 -0.017500
v -0.019723 0.008931 -0.017500
v -0.020355 0.007376 -0.017500
v -0.020866 0.005777 -0.017500
v -0.021250 0.004143 -0.017500
v -0.021508 0.002485 -0.017500
v -0.021635 0.000811 -0.017500
v -0.021633 -0.000867 -0.017500
v -0.021501 -0.002540 -0.017500
v -0.021240 -0.004198 -0.017500
v -0.020851 -0.005830 -0.017500
v -0.020337 -0.007428 -0.017500
v -0.019700 -0.008981 -0.017500
v -0.018945 -0.010480 -0.017500
v -0.018076 -0.011916 -0.017500
v -0.017099 -0.013280 -0.017500
v -0.016019 -0.014565 -0.017500
v -0.009906 0.019898 -0.017500
v 0.000434 -0.021646 -0.017500
v 0.002109 -0.021548 -0.017500
v 0.003772 -0.021320 -0.017500
v 0.005412 -0.020963 -0.017500
v 0.008585 -0.019876 -0.017500
v 0.007019 -0.020481 -0.017500
v -0.007782 -0.020204 -0.017500
v -0.009324 -0.019540 -0.017500
v -0.010809 -0.018759 -0.017500
v -0.012230 -0.017866 -0.017500
v -0.013577 -0.016865 -0.017500
v -0.014843 -0.015762 -0.017500
v -0.006194 -0.020746 -0.017500
v -0.004568 -0.021163 -0.017500
v -0.002915 -0.021453 -0.017500
v -0.001245 -0.021615 -0.017500
v 0.021651 0.000000 -0.017500
v -0.006651 0.028535 -0.017500
v -0.006672 0.027748 -0.017500
v -0.006738 0.026963 -0.017500
v -0.006849 0.026184 -0.017500
v -0.007007 0.025413 -0.017500
v -0.007211 0.024653 -0.017500
v -0.007463 0.023907 -0.017500
v 0.021651 0.050000 -0.017500
v -0.006651 0.050000 -0.017500
v 0.021586 -0.001677 -0.017500
v 0.021391 -0.003344 -0.017500
v 0.021068 -0.004991 -0.017500
v 0.020618 -0.006608 -0.017500
v 0.020044 -0.008185 -0.017500
v 0.019350 -0.009713 -0.017500
v 0.018539 -0.011183 -0.017500
v 0.017617 -0.012585 -0.017500
v 0.016589 -0.013912 -0.017500
v 0.015462 -0.015155 -0.017500
v 0.014241 -0.016307 -0.017500
v 0.012935 -0.017362 -0.017500
v 0.011552 -0.018311 -0.017500
v 0.010099 -0.019151 -0.017500
v -0.009395 0.020496 -0.017500
v -0.008923 0.021127 -0.017500
v -0.008493 0.021786 -0.017500
v -0.008105 0.022471 -0.017500
v -0.007762 0.023179 -0.017500
v 0.005412 -0.020963 -0.017500
v 0.003772 -0.021320 -0.017500
v 0.002109 -0.021548 -0.017500
v 0.021068 -0.004991 -0.017500
v 0.000434 -0.021646 -0.017500
v -0.009906 0.019898 -0.017500
v -0.016019 -0.014565 -0.017500
v -0.017099 -0.013280 -0.017500
v -0.018076 -0.011916 -0.017500
v -0.018945 -0.010480 -0.017500
v -0.019700 -0.008981 -0.017500
v -0.020337 -0.007428 -0.017500
v -0.020355 0.007376 -0.017500
v -0.010452 0.019331 -0.017500
v 0.021391 -0.003344 -0.017500
v 0.021586 -0.001677 -0.017500
v -0.006651 0.050000 -0.017500
v 0.021651 0.050000 -0.017500
v -0.007463 0.023907 -0.017500
v -0.007211 0.024653 -0.017500
v -0.007007 0.025413 -0.017500
v -0.006849 0.026184 -0.017500
v -0.006738 0.026963 -0.017500
v -0.006672 0.027748 -0.017500
v -0.006651 0.028535 -0.017500
v 0.021651 0.000000 -0.017500
v -0.021240 -0.004198 -0.017500
v -0.021501 -0.002540 -0.017500
v -0.021633 -0.000867 -0.017500
v -0.021508 0.002485 -0.017500
v -0.019723 0.008931 -0.017500
v -0.011031 0.018798 -0.017500
v -0.012276 0.017834 -0.017500
v -0.014883 0.015724 -0.017500
v -0.001245 -0.021615 -0.017500
v -0.002915 -0.021453 -0.017500
v -0.004568 -0.021163 -0.017500
v -0.006194 -0.020746 -0.017500
v -0.014843 -0.015762 -0.017500
v -0.013577 -0.016865 -0.017500
v -0.012230 -0.017866 -0.017500
v -0.010809 -0.018759 -0.017500
v -0.009324 -0.019540 -0.017500
v -0.007782 -0.020204 -0.017500
v 0.007019 -0.020481 -0.017500
v 0.008585 -0.019876 -0.017500
v -0.020851 -0.005830 -0.017500
v -0.021635 0.000811 -0.017500
v -0.021250 0.004143 -0.017500
v -0.020866 0.005777 -0.017500
v -0.018972 0.010432 -0.017500
v -0.011640 0.018298 -0.017500
v -0.013620 0.016830 -0.017500
v -0.018107 0.011870 -0.017500
v -0.017133 0.013237 -0.017500
v -0.016056 0.014524 -0.017500
v 0.020618 -0.006608 -0.017500
v 0.020044 -0.008185 -0.017500
v 0.019350 -0.009713 -0.017500
v 0.018539 -0.011183 -0.017500
v 0.017617 -0.012585 -0.017500
v 0.016589 -0.013912 -0.017500
v 0.015462 -0.015155 -0.017500
v 0.014241 -0.016307 -0.017500
v 0.012935 -0.017362 -0.017500
v 0.011552 -0.018311 -0.017500
v 0.010099 -0.019151 -0.017500
v -0.009395 0.020496 -0.017500
v -0.008923 0.021127 -0.017500
v -0.008493 0.021786 -0.017500
v -0.008105 0.022471 -0.017500
v -0.007762 0.023179 -0.017500
vn -0.0000 1.0000 -0.0000
vn -0.0000 -0.0000 -1.0000
s 0
f 42//1 43//1 107//1 108//1
f 22//2 21//2 20//2 19//2 18//2 17//2 16//2 15//2 14//2 13//2 12//2 11//2 10//2 1//2 2//2 3//2 4//2 5//2 6//2 7//2 8//2 9//2 27//2 68//2 69//2 70//2 71//2 72//2 51//2 50//2 49//2 48//2 47//2 46//2 45//2 53//2 52//2 44//2 54//2 55//2 56//2 57//2 58//2 59//2 60//2 61//2 62//2 63//2 64//2 65//2 66//2 67//2 32//2 33//2 31//2 30//2 29//2 28//2 43//2 42//2 41//2 40//2 34//2 35//2 36//2 37//2 38//2 39//2 26//2 25//2 24//2 23//2
f 55//1 56//1 76//1 87//1
f 32//1 67//1 139//1 118//1
f 28//1 29//1 75//1 77//1
f 47//1 48//1 94//1 95//1
f 18//1 19//1 99//1 100//1
f 58//1 59//1 131//1 130//1
f 12//1 13//1 122//1 85//1
f 35//1 36//1 114//1 115//1
f 57//1 58//1 130//1 129//1
f 49//1 50//1 92//1 93//1
f 34//1 40//1 110//1 116//1
f 38//1 39//1 111//1 112//1
f 64//1 65//1 137//1 136//1
f 22//1 23//1 82//1 83//1
f 16//1 17//1 101//1 120//1
f 71//1 72//1 144//1 143//1
f 1//1 10//1 123//1 126//1
f 8//1 9//1 86//1 104//1
f 66//1 67//1 139//1 138//1
f 1//1 2//1 127//1 126//1
f 59//1 60//1 132//1 131//1
f 36//1 37//1 113//1 114//1
f 40//1 41//1 109//1 110//1
f 17//1 18//1 100//1 101//1
f 65//1 66//1 138//1 137//1
f 7//1 8//1 104//1 124//1
f 44//1 54//1 88//1 98//1
f 50//1 51//1 91//1 92//1
f 45//1 53//1 89//1 97//1
f 28//1 43//1 107//1 77//1
f 48//1 49//1 93//1 94//1
f 41//1 42//1 108//1 109//1
f 11//1 12//1 85//1 103//1
f 34//1 35//1 115//1 116//1
f 32//1 33//1 117//1 118//1
f 37//1 38//1 112//1 113//1
f 30//1 31//1 73//1 74//1
f 6//1 7//1 124//1 105//1
f 63//1 64//1 136//1 135//1
f 9//1 27//1 78//1 86//1
f 25//1 26//1 79//1 80//1
f 20//1 21//1 84//1 119//1
f 54//1 55//1 87//1 88//1
f 3//1 4//1 106//1 128//1
f 24//1 25//1 80//1 81//1
f 21//1 22//1 83//1 84//1
f 10//1 11//1 103//1 123//1
f 14//1 15//1 102//1 121//1
f 29//1 30//1 74//1 75//1
f 15//1 16//1 120//1 102//1
f 2//1 3//1 128//1 127//1
f 5//1 6//1 105//1 125//1
f 19//1 20//1 119//1 99//1
f 51//1 72//1 144//1 91//1
f 13//1 14//1 121//1 122//1
f 52//1 53//1 89//1 90//1
f 46//1 47//1 95//1 96//1
f 70//1 71//1 143//1 142//1
f 69//1 70//1 142//1 141//1
f 31//1 33//1 117//1 73//1
f 23//1 24//1 81//1 82//1
f 62//1 63//1 135//1 134//1
f 4//1 5//1 125//1 106//1
f 44//1 52//1 90//1 98//1
f 45//1 46//1 96//1 97//1
f 61//1 62//1 134//1 133//1
f 56//1 57//1 129//1 76//1
f 68//1 69//1 141//1 140//1
f 26//1 39//1 111//1 79//1
f 60//1 61//1 133//1 132//1
f 27//1 68//1 140//1 78//1
